<?xml version="1.0" encoding="UTF-8"?>
<svg width="495px" height="190px" viewBox="0 0 495 190" version="1.1" xmlns="http://www.w3.org/2000/svg" xmlns:xlink="http://www.w3.org/1999/xlink">
    <!-- Generator: Sketch 60 (88103) - https://sketch.com -->
    <title>编组 2</title>
    <desc>Created with Sketch.</desc>
    <defs>
        <path d="M11.4581926,179.571391 L0,164.103 L0,164.103 L0,32.4526728 L12.9487093,17.3376528 C16.9383669,12.680528 22.7643707,10 28.8967583,10 L166.854667,10 C170.798206,10 174.602832,11.4563611 177.538404,14.0895942 L192.796048,27.7758331 L192.796048,27.7758331 L475.714482,27.7758331 L480,32.4526728 L480,176 C480,179.313708 477.313708,182 474,182 L16.2795171,182 C14.3784119,182 12.5897908,181.099031 11.4581926,179.571391 Z" id="path-1"></path>
        <filter x="-4.4%" y="-12.2%" width="108.8%" height="124.4%" filterUnits="objectBoundingBox" id="filter-2">
            <feMorphology radius="3" operator="erode" in="SourceAlpha" result="shadowSpreadInner1"></feMorphology>
            <feGaussianBlur stdDeviation="17" in="shadowSpreadInner1" result="shadowBlurInner1"></feGaussianBlur>
            <feOffset dx="0" dy="5" in="shadowBlurInner1" result="shadowOffsetInner1"></feOffset>
            <feComposite in="shadowOffsetInner1" in2="SourceAlpha" operator="arithmetic" k2="-1" k3="1" result="shadowInnerInner1"></feComposite>
            <feColorMatrix values="0 0 0 0 0.308169158   0 0 0 0 0.0469065402   0 0 0 0 0.0602192851  0 0 0 1 0" type="matrix" in="shadowInnerInner1"></feColorMatrix>
        </filter>
        <radialGradient cx="47.8738867%" cy="4.74292652%" fx="47.8738867%" fy="4.74292652%" r="23404.1313%" gradientTransform="translate(0.478739,0.047429),scale(0.002075,1.000000),rotate(179.889688),scale(1.000000,0.012405),translate(-0.478739,-0.047429)" id="radialGradient-3">
            <stop stop-color="#780A10" offset="0%"></stop>
            <stop stop-color="#B30008" stop-opacity="0.520487325" offset="81.426837%"></stop>
            <stop stop-color="#B6131B" stop-opacity="0.136390953" offset="100%"></stop>
        </radialGradient>
        <path d="M480,63.6549694 L480,33.7758331 C480,30.4621246 477.313708,27.7758331 474,27.7758331 L196.567377,27.7758331 C193.502809,27.7758331 190.554364,26.603356 188.326676,24.4988403 L176.448043,13.2769928 C174.220356,11.1724771 171.271911,10 168.207343,10 L24.7558835,10 C21.251662,10 17.922517,11.5317303 15.6427126,14.1929445 L2.88682911,29.082879 C1.02391639,31.2574558 -6.18447822e-15,34.0265052 0,36.8899346 L0,160.142608 C-5.01408724e-15,162.714641 0.826394924,165.218621 2.35735103,167.285389 L9.65920297,177.142781 C11.9223994,180.198063 15.4996415,182 19.3018519,182 L474,182 C477.313708,182 480,179.313708 480,176 L480,63.6549694 L480,63.6549694 Z" id="path-4"></path>
        <filter x="-2.2%" y="-6.3%" width="104.5%" height="112.6%" filterUnits="objectBoundingBox" id="filter-5">
            <feMorphology radius="1.3" operator="dilate" in="SourceAlpha" result="shadowSpreadOuter1"></feMorphology>
            <feOffset dx="0" dy="0" in="shadowSpreadOuter1" result="shadowOffsetOuter1"></feOffset>
            <feMorphology radius="1.5" operator="erode" in="SourceAlpha" result="shadowInner"></feMorphology>
            <feOffset dx="0" dy="0" in="shadowInner" result="shadowInner"></feOffset>
            <feComposite in="shadowOffsetOuter1" in2="shadowInner" operator="out" result="shadowOffsetOuter1"></feComposite>
            <feGaussianBlur stdDeviation="3" in="shadowOffsetOuter1" result="shadowBlurOuter1"></feGaussianBlur>
            <feColorMatrix values="0 0 0 0 0.703153306   0 0 0 0 0.199021326   0 0 0 0 0.22470958  0 0 0 1 0" type="matrix" in="shadowBlurOuter1"></feColorMatrix>
        </filter>
        <linearGradient x1="100%" y1="50%" x2="-1.5299397%" y2="50%" id="linearGradient-6">
            <stop stop-color="#8B4A4E" stop-opacity="0" offset="0%"></stop>
            <stop stop-color="#973940" offset="100%"></stop>
        </linearGradient>
    </defs>
    <g id="组件" stroke="none" stroke-width="1" fill="none" fill-rule="evenodd">
        <g id="弹框/bg/506x178" transform="translate(-7.000000, 0.000000)">
            <g id="编组-2" transform="translate(14.000000, 0.000000)">
                <g id="路径-22">
                    <use fill="#150304" fill-rule="evenodd" xlink:href="#path-1"></use>
                    <use fill="black" fill-opacity="1" filter="url(#filter-2)" xlink:href="#path-1"></use>
                </g>
                <g id="编组-11" opacity="0.0715755208" fill="url(#radialGradient-3)">
                    <polygon id="矩形" points="0 0 482 0 482 1 0 1"></polygon>
                    <polygon id="矩形备份-17" points="0 48 482 48 482 49 0 49"></polygon>
                    <polygon id="矩形备份" points="0 3 482 3 482 4 0 4"></polygon>
                    <polygon id="矩形备份-18" points="0 51 482 51 482 52 0 52"></polygon>
                    <polygon id="矩形备份-3" points="0 6 482 6 482 7 0 7"></polygon>
                    <polygon id="矩形备份-19" points="0 54 482 54 482 55 0 55"></polygon>
                    <polygon id="矩形备份-4" points="0 9 482 9 482 10 0 10"></polygon>
                    <polygon id="矩形备份-20" points="0 57 482 57 482 58 0 58"></polygon>
                    <polygon id="矩形备份-5" points="0 12 482 12 482 13 0 13"></polygon>
                    <polygon id="矩形备份-21" points="0 60 482 60 482 61 0 61"></polygon>
                    <polygon id="矩形备份-6" points="0 15 482 15 482 16 0 16"></polygon>
                    <polygon id="矩形备份-22" points="0 63 482 63 482 64 0 64"></polygon>
                    <polygon id="矩形备份-7" points="0 18 482 18 482 19 0 19"></polygon>
                    <polygon id="矩形备份-23" points="0 66 482 66 482 67 0 67"></polygon>
                    <polygon id="矩形备份-8" points="0 21 482 21 482 22 0 22"></polygon>
                    <polygon id="矩形备份-24" points="0 69 482 69 482 70 0 70"></polygon>
                    <polygon id="矩形备份-9" points="0 24 482 24 482 25 0 25"></polygon>
                    <polygon id="矩形备份-25" points="0 72 482 72 482 73 0 73"></polygon>
                    <polygon id="矩形备份-10" points="0 27 482 27 482 28 0 28"></polygon>
                    <polygon id="矩形备份-26" points="0 75 482 75 482 76 0 76"></polygon>
                    <polygon id="矩形备份-11" points="0 30 482 30 482 31 0 31"></polygon>
                    <polygon id="矩形备份-27" points="0 78 482 78 482 79 0 79"></polygon>
                    <polygon id="矩形备份-12" points="0 33 482 33 482 34 0 34"></polygon>
                    <polygon id="矩形备份-28" points="0 81 482 81 482 82 0 82"></polygon>
                    <polygon id="矩形备份-13" points="0 36 482 36 482 37 0 37"></polygon>
                    <polygon id="矩形备份-29" points="0 84 482 84 482 85 0 85"></polygon>
                    <polygon id="矩形备份-14" points="0 39 482 39 482 40 0 40"></polygon>
                    <polygon id="矩形备份-30" points="0 87 482 87 482 88 0 88"></polygon>
                    <polygon id="矩形备份-15" points="0 42 482 42 482 43 0 43"></polygon>
                    <polygon id="矩形备份-31" points="0 90 482 90 482 91 0 91"></polygon>
                    <polygon id="矩形备份-16" points="0 45 482 45 482 46 0 46"></polygon>
                    <polygon id="矩形备份-32" points="0 93 482 93 482 94 0 94"></polygon>
                    <polygon id="矩形备份-64" points="0 90 482 90 482 91 0 91"></polygon>
                    <polygon id="矩形备份-63" points="0 138 482 138 482 139 0 139"></polygon>
                    <polygon id="矩形备份-62" points="0 93 482 93 482 94 0 94"></polygon>
                    <polygon id="矩形备份-61" points="0 141 482 141 482 142 0 142"></polygon>
                    <polygon id="矩形备份-60" points="0 96 482 96 482 97 0 97"></polygon>
                    <polygon id="矩形备份-59" points="0 144 482 144 482 145 0 145"></polygon>
                    <polygon id="矩形备份-58" points="0 99 482 99 482 100 0 100"></polygon>
                    <polygon id="矩形备份-57" points="0 147 482 147 482 148 0 148"></polygon>
                    <polygon id="矩形备份-56" points="0 102 482 102 482 103 0 103"></polygon>
                    <polygon id="矩形备份-55" points="0 150 482 150 482 151 0 151"></polygon>
                    <polygon id="矩形备份-54" points="0 105 482 105 482 106 0 106"></polygon>
                    <polygon id="矩形备份-53" points="0 153 482 153 482 154 0 154"></polygon>
                    <polygon id="矩形备份-52" points="0 108 482 108 482 109 0 109"></polygon>
                    <polygon id="矩形备份-51" points="0 156 482 156 482 157 0 157"></polygon>
                    <polygon id="矩形备份-50" points="0 111 482 111 482 112 0 112"></polygon>
                    <polygon id="矩形备份-49" points="0 159 482 159 482 160 0 160"></polygon>
                    <polygon id="矩形备份-48" points="0 114 482 114 482 115 0 115"></polygon>
                    <polygon id="矩形备份-47" points="0 162 482 162 482 163 0 163"></polygon>
                    <polygon id="矩形备份-46" points="0 117 482 117 482 118 0 118"></polygon>
                    <polygon id="矩形备份-45" points="0 165 482 165 482 166 0 166"></polygon>
                    <polygon id="矩形备份-44" points="0 120 482 120 482 121 0 121"></polygon>
                    <polygon id="矩形备份-43" points="0 168 482 168 482 169 0 169"></polygon>
                    <polygon id="矩形备份-42" points="0 123 482 123 482 124 0 124"></polygon>
                    <polygon id="矩形备份-41" points="0 171 482 171 482 172 0 172"></polygon>
                    <polygon id="矩形备份-40" points="0 126 482 126 482 127 0 127"></polygon>
                    <polygon id="矩形备份-39" points="0 174 482 174 482 175 0 175"></polygon>
                    <polygon id="矩形备份-38" points="0 129 482 129 482 130 0 130"></polygon>
                    <polygon id="矩形备份-37" points="0 177 482 177 482 178 0 178"></polygon>
                    <polygon id="矩形备份-36" points="0 132 482 132 482 133 0 133"></polygon>
                    <polygon id="矩形备份-35" points="0 180 482 180 482 181 0 181"></polygon>
                    <polygon id="矩形备份-34" points="0 135 482 135 482 136 0 136"></polygon>
                </g>
                <g id="路径-18">
                    <use fill="black" fill-opacity="1" filter="url(#filter-5)" xlink:href="#path-4"></use>
                    <use stroke="#FFD3D5" stroke-width="1.6" xlink:href="#path-4"></use>
                </g>
                <g id="编组" transform="translate(190.000000, 13.000000)" fill="url(#linearGradient-6)">
                    <path d="M291,0 L291,8 L283.5,8 C283.776142,8 284,7.77614237 284,7.5 L284,7.5 L284,0.5 C284,0.223857625 283.776142,0 283.5,0 C283.223858,0 283,0.223857625 283,0.5 L283,0.5 L283,7.5 C283,7.77614237 283.223858,8 283.5,8 L283.5,8 L272.5,8 C272.776142,8 273,7.77614237 273,7.5 L273,7.5 L273,0.5 C273,0.223857625 272.776142,0 272.5,0 C272.223858,0 272,0.223857625 272,0.5 L272,0.5 L272,7.5 C272,7.77614237 272.223858,8 272.5,8 L272.5,8 L261.5,8 C261.776142,8 262,7.77614237 262,7.5 L262,7.5 L262,0.5 C262,0.223857625 261.776142,0 261.5,0 C261.223858,0 261,0.223857625 261,0.5 L261,0.5 L261,7.5 C261,7.77614237 261.223858,8 261.5,8 L261.5,8 L250.5,8 C250.776142,8 251,7.77614237 251,7.5 L251,7.5 L251,0.5 C251,0.223857625 250.776142,0 250.5,0 C250.223858,0 250,0.223857625 250,0.5 L250,0.5 L250,7.5 C250,7.77614237 250.223858,8 250.5,8 L250.5,8 L239.5,8 C239.776142,8 240,7.77614237 240,7.5 L240,7.5 L240,0.5 C240,0.223857625 239.776142,0 239.5,0 C239.223858,0 239,0.223857625 239,0.5 L239,0.5 L239,7.5 C239,7.77614237 239.223858,8 239.5,8 L239.5,8 L228.5,8 C228.776142,8 229,7.77614237 229,7.5 L229,7.5 L229,0.5 C229,0.223857625 228.776142,0 228.5,0 C228.223858,0 228,0.223857625 228,0.5 L228,0.5 L228,7.5 C228,7.77614237 228.223858,8 228.5,8 L228.5,8 L217.5,8 C217.776142,8 218,7.77614237 218,7.5 L218,7.5 L218,0.5 C218,0.223857625 217.776142,0 217.5,0 C217.223858,0 217,0.223857625 217,0.5 L217,0.5 L217,7.5 C217,7.77614237 217.223858,8 217.5,8 L217.5,8 L206.5,8 C206.776142,8 207,7.77614237 207,7.5 L207,7.5 L207,0.5 C207,0.223857625 206.776142,0 206.5,0 C206.223858,0 206,0.223857625 206,0.5 L206,0.5 L206,7.5 C206,7.77614237 206.223858,8 206.5,8 L206.5,8 L195.5,8 C195.776142,8 196,7.77614237 196,7.5 L196,7.5 L196,0.5 C196,0.223857625 195.776142,0 195.5,0 C195.223858,0 195,0.223857625 195,0.5 L195,0.5 L195,7.5 C195,7.77614237 195.223858,8 195.5,8 L195.5,8 L184.5,8 C184.776142,8 185,7.77614237 185,7.5 L185,7.5 L185,0.5 C185,0.223857625 184.776142,0 184.5,0 C184.223858,0 184,0.223857625 184,0.5 L184,0.5 L184,7.5 C184,7.77614237 184.223858,8 184.5,8 L184.5,8 L173.5,8 C173.776142,8 174,7.77614237 174,7.5 L174,7.5 L174,0.5 C174,0.223857625 173.776142,0 173.5,0 C173.223858,0 173,0.223857625 173,0.5 L173,0.5 L173,7.5 C173,7.77614237 173.223858,8 173.5,8 L173.5,8 L162.5,8 C162.776142,8 163,7.77614237 163,7.5 L163,7.5 L163,0.5 C163,0.223857625 162.776142,0 162.5,0 C162.223858,0 162,0.223857625 162,0.5 L162,0.5 L162,7.5 C162,7.77614237 162.223858,8 162.5,8 L162.5,8 L151.5,8 C151.776142,8 152,7.77614237 152,7.5 L152,7.5 L152,0.5 C152,0.223857625 151.776142,0 151.5,0 C151.223858,0 151,0.223857625 151,0.5 L151,0.5 L151,7.5 C151,7.77614237 151.223858,8 151.5,8 L151.5,8 L140.5,8 C140.776142,8 141,7.77614237 141,7.5 L141,7.5 L141,0.5 C141,0.223857625 140.776142,0 140.5,0 C140.223858,0 140,0.223857625 140,0.5 L140,0.5 L140,7.5 C140,7.77614237 140.223858,8 140.5,8 L140.5,8 L129.5,8 C129.776142,8 130,7.77614237 130,7.5 L130,7.5 L130,0.5 C130,0.223857625 129.776142,0 129.5,0 C129.223858,0 129,0.223857625 129,0.5 L129,0.5 L129,7.5 C129,7.77614237 129.223858,8 129.5,8 L129.5,8 L118.5,8 C118.776142,8 119,7.77614237 119,7.5 L119,7.5 L119,0.5 C119,0.223857625 118.776142,0 118.5,0 C118.223858,0 118,0.223857625 118,0.5 L118,0.5 L118,7.5 C118,7.77614237 118.223858,8 118.5,8 L118.5,8 L107.5,8 C107.776142,8 108,7.77614237 108,7.5 L108,7.5 L108,0.5 C108,0.223857625 107.776142,0 107.5,0 C107.223858,0 107,0.223857625 107,0.5 L107,0.5 L107,7.5 C107,7.77614237 107.223858,8 107.5,8 L107.5,8 L96.5,8 C96.7761424,8 97,7.77614237 97,7.5 L97,7.5 L97,0.5 C97,0.223857625 96.7761424,0 96.5,0 C96.2238576,0 96,0.223857625 96,0.5 L96,0.5 L96,7.5 C96,7.77614237 96.2238576,8 96.5,8 L96.5,8 L85.5,8 C85.7761424,8 86,7.77614237 86,7.5 L86,7.5 L86,0.5 C86,0.223857625 85.7761424,0 85.5,0 C85.2238576,0 85,0.223857625 85,0.5 L85,0.5 L85,7.5 C85,7.77614237 85.2238576,8 85.5,8 L85.5,8 L74.5,8 C74.7761424,8 75,7.77614237 75,7.5 L75,7.5 L75,0.5 C75,0.223857625 74.7761424,0 74.5,0 C74.2238576,0 74,0.223857625 74,0.5 L74,0.5 L74,7.5 C74,7.77614237 74.2238576,8 74.5,8 L74.5,8 L63.5,8 C63.7761424,8 64,7.77614237 64,7.5 L64,7.5 L64,0.5 C64,0.223857625 63.7761424,0 63.5,0 C63.2238576,0 63,0.223857625 63,0.5 L63,0.5 L63,7.5 C63,7.77614237 63.2238576,8 63.5,8 L63.5,8 L52.5,8 C52.7761424,8 53,7.77614237 53,7.5 L53,7.5 L53,0.5 C53,0.223857625 52.7761424,0 52.5,0 C52.2238576,0 52,0.223857625 52,0.5 L52,0.5 L52,7.5 C52,7.77614237 52.2238576,8 52.5,8 L52.5,8 L41.5,8 C41.7761424,8 42,7.77614237 42,7.5 L42,7.5 L42,0.5 C42,0.223857625 41.7761424,0 41.5,0 C41.2238576,0 41,0.223857625 41,0.5 L41,0.5 L41,7.5 C41,7.77614237 41.2238576,8 41.5,8 L41.5,8 L30.5,8 C30.7761424,8 31,7.77614237 31,7.5 L31,7.5 L31,0.5 C31,0.223857625 30.7761424,0 30.5,0 C30.2238576,0 30,0.223857625 30,0.5 L30,0.5 L30,7.5 C30,7.77614237 30.2238576,8 30.5,8 L30.5,8 L19.5,8 C19.7761424,8 20,7.77614237 20,7.5 L20,7.5 L20,0.5 C20,0.223857625 19.7761424,0 19.5,0 C19.2238576,0 19,0.223857625 19,0.5 L19,0.5 L19,7.5 C19,7.77614237 19.2238576,8 19.5,8 L19.5,8 L8.5,8 C8.77614237,8 9,7.77614237 9,7.5 L9,7.5 L9,0.5 C9,0.223857625 8.77614237,0 8.5,0 C8.22385763,0 8,0.223857625 8,0.5 L8,0.5 L8,7.5 C8,7.77614237 8.22385763,8 8.5,8 L8.5,8 L8.38019932,8 C8.13528516,8 7.89888661,7.91012143 7.71583548,7.74740932 L0.965835484,1.74740932 C0.553052715,1.3804913 0.515871987,0.74841893 0.882790004,0.335636161 C1.07255744,0.122147797 1.34456151,-3.91618395e-16 1.63019932,0 L291,0 Z" id="形状结合"></path>
                </g>
            </g>
        </g>
    </g>
</svg>