<?xml version="1.0" encoding="UTF-8"?>
<svg width="74px" height="95px" viewBox="0 0 74 95" version="1.1" xmlns="http://www.w3.org/2000/svg" xmlns:xlink="http://www.w3.org/1999/xlink">
    <!-- Generator: Sketch 60 (88103) - https://sketch.com -->
    <title>icon/主菜单/模版1/选中</title>
    <desc>Created with Sketch.</desc>
    <defs>
        <linearGradient x1="50%" y1="0%" x2="50%" y2="100%" id="linearGradient-1">
            <stop stop-color="#B77200" offset="0%"></stop>
            <stop stop-color="#C78D26" offset="100%"></stop>
        </linearGradient>
        <filter x="-2.5%" y="-2.0%" width="104.9%" height="104.1%" filterUnits="objectBoundingBox" id="filter-2">
            <feGaussianBlur stdDeviation="0.6" in="SourceGraphic"></feGaussianBlur>
        </filter>
        <filter x="-23.5%" y="-100.0%" width="147.0%" height="300.0%" filterUnits="objectBoundingBox" id="filter-3">
            <feGaussianBlur stdDeviation="4" in="SourceGraphic"></feGaussianBlur>
        </filter>
        <polygon id="path-4" points="36.6788383 9.22379443 7.75625 26.290988 7.75625 60.0270741 36.6788383 77.4492497 65.6014267 60.0270741 65.6014267 26.290988"></polygon>
        <filter x="-28.5%" y="-24.7%" width="157.0%" height="149.3%" filterUnits="objectBoundingBox" id="filter-5">
            <feMorphology radius="1" operator="dilate" in="SourceAlpha" result="shadowSpreadOuter1"></feMorphology>
            <feOffset dx="0" dy="0" in="shadowSpreadOuter1" result="shadowOffsetOuter1"></feOffset>
            <feGaussianBlur stdDeviation="4.5" in="shadowOffsetOuter1" result="shadowBlurOuter1"></feGaussianBlur>
            <feComposite in="shadowBlurOuter1" in2="SourceAlpha" operator="out" result="shadowBlurOuter1"></feComposite>
            <feColorMatrix values="0 0 0 0 1   0 0 0 0 0.976978526   0 0 0 0 0.606916921  0 0 0 1 0" type="matrix" in="shadowBlurOuter1"></feColorMatrix>
        </filter>
        <filter x="-25.1%" y="-21.7%" width="150.1%" height="143.5%" filterUnits="objectBoundingBox" id="filter-6">
            <feMorphology radius="1" operator="erode" in="SourceAlpha" result="shadowSpreadInner1"></feMorphology>
            <feGaussianBlur stdDeviation="2.5" in="shadowSpreadInner1" result="shadowBlurInner1"></feGaussianBlur>
            <feOffset dx="0" dy="1" in="shadowBlurInner1" result="shadowOffsetInner1"></feOffset>
            <feComposite in="shadowOffsetInner1" in2="SourceAlpha" operator="arithmetic" k2="-1" k3="1" result="shadowInnerInner1"></feComposite>
            <feColorMatrix values="0 0 0 0 0.0427665864   0 0 0 0 0.243188738   0 0 0 0 0.477326766  0 0 0 1 0" type="matrix" in="shadowInnerInner1"></feColorMatrix>
        </filter>
        <radialGradient cx="48.6900192%" cy="48.6369167%" fx="48.6900192%" fy="48.6369167%" r="53.1766279%" gradientTransform="translate(0.486900,0.486369),scale(1.000000,0.919125),rotate(90.000000),translate(-0.486900,-0.486369)" id="radialGradient-7">
            <stop stop-color="#213B5E" stop-opacity="0.0896798514" offset="0%"></stop>
            <stop stop-color="#784F00" stop-opacity="0.1" offset="40.4624946%"></stop>
            <stop stop-color="#784F00" stop-opacity="0.65" offset="54.8363371%"></stop>
            <stop stop-color="#784F00" stop-opacity="0" offset="100%"></stop>
        </radialGradient>
        <linearGradient x1="47.4387697%" y1="-0.433546613%" x2="47.4387697%" y2="101.378802%" id="linearGradient-8">
            <stop stop-color="#E37F00" offset="0%"></stop>
            <stop stop-color="#BF7A00" offset="61.6924776%"></stop>
            <stop stop-color="#BF7A00" stop-opacity="0.540810752" offset="81.652274%"></stop>
            <stop stop-color="#BF7A00" stop-opacity="0.0652043269" offset="100%"></stop>
        </linearGradient>
    </defs>
    <g id="icon/主菜单/模版1/选中" stroke="none" stroke-width="1" fill="none" fill-rule="evenodd">
        <g id="编组-4">
            <path d="M39.2893132,86.2870844 L36.5135385,88 L33.7253934,86.2870844 L39.2893132,86.2870844 Z M46.6198891,81.7306985 L43.6483082,83.5532529 L29.3193423,83.5532529 L26.3489921,81.7306985 L46.6198891,81.7306985 Z M54.0493145,77.1743125 L51.0777336,78.9968669 L21.8521745,78.9968669 L18.8818243,77.1743125 L54.0493145,77.1743125 Z M28.8467304,72.6179266 L31.8418036,74.4404809 L14.4231183,74.4404809 L11.4527681,72.6179266 L28.8467304,72.6179266 Z M61.5173746,72.6179266 L58.5470243,74.4404809 L41.1283391,74.4404809 L44.1234123,72.6179266 L61.5173746,72.6179266 Z M21.2994639,68.0615406 L24.2945371,69.884095 L6.99306212,69.884095 L4.02271188,68.0615406 L21.2994639,68.0615406 Z M68.9803056,68.0615406 L66.0099553,69.884095 L48.7084803,69.884095 L51.7035535,68.0615406 L68.9803056,68.0615406 Z M14.0003179,63.5051546 L16.9953911,65.327709 L-3.55271368e-14,65.327709 L-3.55271368e-14,63.5051546 L14.0003179,63.5051546 Z M73,63.5051546 L73,65.327709 L56.0046089,65.327709 L58.9996821,63.5051546 L73,63.5051546 Z M9.125,58.9690722 L9.125,60.7835052 L0,60.7835052 L0,58.9690722 L9.125,58.9690722 Z M73,58.9690722 L73,60.7835052 L63.875,60.7835052 L63.875,58.9690722 L73,58.9690722 Z M9.125,54.4329897 L9.125,56.2474227 L0,56.2474227 L0,54.4329897 L9.125,54.4329897 Z M73,54.4329897 L73,56.2474227 L63.875,56.2474227 L63.875,54.4329897 L73,54.4329897 Z M9.125,49.8969072 L9.125,51.7113402 L0,51.7113402 L0,49.8969072 L9.125,49.8969072 Z M73,49.8969072 L73,51.7113402 L63.875,51.7113402 L63.875,49.8969072 L73,49.8969072 Z M9.125,45.3608247 L9.125,47.1752577 L0,47.1752577 L0,45.3608247 L9.125,45.3608247 Z M73,45.3608247 L73,47.1752577 L63.875,47.1752577 L63.875,45.3608247 L73,45.3608247 Z M9.125,40.8247423 L9.125,42.6391753 L0,42.6391753 L0,40.8247423 L9.125,40.8247423 Z M73,40.8247423 L73,42.6391753 L63.875,42.6391753 L63.875,40.8247423 L73,40.8247423 Z M9.125,36.2886598 L9.125,38.1030928 L0,38.1030928 L0,36.2886598 L9.125,36.2886598 Z M73,36.2886598 L73,38.1030928 L63.875,38.1030928 L63.875,36.2886598 L73,36.2886598 Z M9.125,31.7525773 L9.125,33.5670103 L0,33.5670103 L0,31.7525773 L9.125,31.7525773 Z M73,31.7525773 L73,33.5670103 L63.875,33.5670103 L63.875,31.7525773 L73,31.7525773 Z M73,27.2164948 L73,29.0309278 L63.875,29.0309278 L63.875,27.2164948 L73,27.2164948 Z M9.125,27.2164948 L9.125,29.0309278 L0,29.0309278 L0,27.2164948 L9.125,27.2164948 Z M73,22.672291 L73,24.4948454 L58.9996821,24.4948454 L56.0046089,22.672291 L73,22.672291 Z M16.9953911,22.672291 L14.0003179,24.4948454 L-3.55271368e-14,24.4948454 L-3.55271368e-14,22.672291 L16.9953911,22.672291 Z M66.0099553,18.115905 L68.9803056,19.9384594 L51.7035535,19.9384594 L48.7084803,18.115905 L66.0099553,18.115905 Z M24.2945371,18.115905 L21.2994639,19.9384594 L4.02271188,19.9384594 L6.99306212,18.115905 L24.2945371,18.115905 Z M58.5470243,13.5595191 L61.5173746,15.3820734 L44.1234123,15.3820734 L41.1283391,13.5595191 L58.5470243,13.5595191 Z M31.8418036,13.5595191 L28.8467304,15.3820734 L11.4527681,15.3820734 L14.4231183,13.5595191 L31.8418036,13.5595191 Z M51.0777336,9.0031331 L54.0493145,10.8256875 L18.8818243,10.8256875 L21.8521745,9.0031331 L51.0777336,9.0031331 Z M43.6483082,4.44674714 L46.6198891,6.26930153 L26.3489921,6.26930153 L29.3193423,4.44674714 L43.6483082,4.44674714 Z M36.5135385,5.32907052e-14 L39.2893132,1.71291557 L33.7253934,1.71291557 L36.5135385,5.32907052e-14 Z" id="形状结合" fill="url(#linearGradient-1)" opacity="0.427176339" filter="url(#filter-2)"></path>
            <rect id="矩形" fill="#5C4415" opacity="0.6" filter="url(#filter-3)" x="11.40625" y="79" width="51.1" height="12" rx="6"></rect>
            <g id="路径-6">
                <use fill="black" fill-opacity="1" filter="url(#filter-5)" xlink:href="#path-4"></use>
                <use fill-opacity="0.8" fill="#061A35" fill-rule="evenodd" xlink:href="#path-4"></use>
                <use fill="black" fill-opacity="1" filter="url(#filter-6)" xlink:href="#path-4"></use>
            </g>
            <polygon id="路径-6" fill="#1A0A04" points="36.6788383 9.22379443 7.75625 26.290988 7.75625 60.0270741 36.6788383 77.4492497 65.6014267 60.0270741 65.6014267 26.290988"></polygon>
            <path d="M39.2750093,74.3 L39.2750093,75.7 L37.8750093,75.7 L37.8750093,74.3 L39.2750093,74.3 Z M36.4750093,74.3 L36.4750093,75.7 L35.0750093,75.7 L35.0750093,74.3 L36.4750093,74.3 Z M33.6750094,74.3 L33.6750094,75.7 L32.2750094,75.7 L32.2750094,74.3 L33.6750094,74.3 Z M38.9325079,71.3 L38.9325079,72.7 L37.5325079,72.7 L37.5325079,71.3 L38.9325079,71.3 Z M36.1325079,71.3 L36.1325079,72.7 L34.732508,72.7 L34.732508,71.3 L36.1325079,71.3 Z M33.332508,71.3 L33.332508,72.7 L31.932508,72.7 L31.932508,71.3 L33.332508,71.3 Z M30.532508,71.3 L30.532508,72.7 L29.1325081,72.7 L29.1325081,71.3 L30.532508,71.3 Z M27.7325081,71.3 L27.7325081,72.7 L26.3325081,72.7 L26.3325081,71.3 L27.7325081,71.3 Z M24.9325081,71.3 L24.9325081,72.7 L23.5325082,72.7 L23.5325082,71.3 L24.9325081,71.3 Z M41.7325078,71.3 L41.7325078,72.7 L40.3325079,72.7 L40.3325079,71.3 L41.7325078,71.3 Z M44.5325078,71.3 L44.5325078,72.7 L43.1325078,72.7 L43.1325078,71.3 L44.5325078,71.3 Z M47.3325077,71.3 L47.3325077,72.7 L45.9325078,72.7 L45.9325078,71.3 L47.3325077,71.3 Z M34.281824,68.3 L34.281824,69.7 L32.881824,69.7 L32.881824,68.3 L34.281824,68.3 Z M37.081824,68.3 L37.081824,69.7 L35.681824,69.7 L35.681824,68.3 L37.081824,68.3 Z M39.8818239,68.3 L39.8818239,69.7 L38.4818239,69.7 L38.4818239,68.3 L39.8818239,68.3 Z M51.0818237,68.3 L51.0818237,69.7 L49.6818237,69.7 L49.6818237,68.3 L51.0818237,68.3 Z M42.6818239,68.3 L42.6818239,69.7 L41.2818239,69.7 L41.2818239,68.3 L42.6818239,68.3 Z M45.4818238,68.3 L45.4818238,69.7 L44.0818238,69.7 L44.0818238,68.3 L45.4818238,68.3 Z M48.2818238,68.3 L48.2818238,69.7 L46.8818238,69.7 L46.8818238,68.3 L48.2818238,68.3 Z M28.6818241,68.3 L28.6818241,69.7 L27.2818241,69.7 L27.2818241,68.3 L28.6818241,68.3 Z M23.0818242,68.3 L23.0818242,69.7 L21.6818242,69.7 L21.6818242,68.3 L23.0818242,68.3 Z M25.8818241,68.3 L25.8818241,69.7 L24.4818242,69.7 L24.4818242,68.3 L25.8818241,68.3 Z M31.4818241,68.3 L31.4818241,69.7 L30.0818241,69.7 L30.0818241,68.3 L31.4818241,68.3 Z M51.9586238,65.3 L51.9586238,66.7 L50.5586239,66.7 L50.5586239,65.3 L51.9586238,65.3 Z M54.7586238,65.3 L54.7586238,66.7 L53.3586238,66.7 L53.3586238,65.3 L54.7586238,65.3 Z M57.5586238,65.3 L57.5586238,66.7 L56.1586238,66.7 L56.1586238,65.3 L57.5586238,65.3 Z M37.9586241,65.3 L37.9586241,66.7 L36.5586241,66.7 L36.5586241,65.3 L37.9586241,65.3 Z M35.1586241,65.3 L35.1586241,66.7 L33.7586242,66.7 L33.7586242,65.3 L35.1586241,65.3 Z M32.3586242,65.3 L32.3586242,66.7 L30.9586242,66.7 L30.9586242,65.3 L32.3586242,65.3 Z M29.5586242,65.3 L29.5586242,66.7 L28.1586243,66.7 L28.1586243,65.3 L29.5586242,65.3 Z M18.3586244,65.3 L18.3586244,66.7 L16.9586244,66.7 L16.9586244,65.3 L18.3586244,65.3 Z M21.1586244,65.3 L21.1586244,66.7 L19.7586244,66.7 L19.7586244,65.3 L21.1586244,65.3 Z M23.9586243,65.3 L23.9586243,66.7 L22.5586243,66.7 L22.5586243,65.3 L23.9586243,65.3 Z M26.7586243,65.3 L26.7586243,66.7 L25.3586243,66.7 L25.3586243,65.3 L26.7586243,65.3 Z M40.758624,65.3 L40.758624,66.7 L39.3586241,66.7 L39.3586241,65.3 L40.758624,65.3 Z M49.1586239,65.3 L49.1586239,66.7 L47.7586239,66.7 L47.7586239,65.3 L49.1586239,65.3 Z M43.558624,65.3 L43.558624,66.7 L42.158624,66.7 L42.158624,65.3 L43.558624,65.3 Z M46.3586239,65.3 L46.3586239,66.7 L44.958624,66.7 L44.958624,65.3 L46.3586239,65.3 Z M25.2466747,62.3 L25.2466747,63.7 L23.8466747,63.7 L23.8466747,62.3 L25.2466747,62.3 Z M39.2466745,62.3 L39.2466745,63.7 L37.8466745,63.7 L37.8466745,62.3 L39.2466745,62.3 Z M11.246675,62.3 L11.246675,63.7 L9.84667498,63.7 L9.84667498,62.3 L11.246675,62.3 Z M14.0466749,62.3 L14.0466749,63.7 L12.6466749,63.7 L12.6466749,62.3 L14.0466749,62.3 Z M16.8466749,62.3 L16.8466749,63.7 L15.4466749,63.7 L15.4466749,62.3 L16.8466749,62.3 Z M19.6466748,62.3 L19.6466748,63.7 L18.2466748,63.7 L18.2466748,62.3 L19.6466748,62.3 Z M22.4466748,62.3 L22.4466748,63.7 L21.0466748,63.7 L21.0466748,62.3 L22.4466748,62.3 Z M36.4466745,62.3 L36.4466745,63.7 L35.0466746,63.7 L35.0466746,62.3 L36.4466745,62.3 Z M42.0466744,62.3 L42.0466744,63.7 L40.6466745,63.7 L40.6466745,62.3 L42.0466744,62.3 Z M44.8466744,62.3 L44.8466744,63.7 L43.4466744,63.7 L43.4466744,62.3 L44.8466744,62.3 Z M63.875,62.3 L63.875,63.7 L63.0466741,63.7 L63.0466741,62.3 L63.875,62.3 Z M47.6466743,62.3 L47.6466743,63.7 L46.2466744,63.7 L46.2466744,62.3 L47.6466743,62.3 Z M50.4466743,62.3 L50.4466743,63.7 L49.0466743,63.7 L49.0466743,62.3 L50.4466743,62.3 Z M53.2466742,62.3 L53.2466742,63.7 L51.8466743,63.7 L51.8466743,62.3 L53.2466742,62.3 Z M56.0466742,62.3 L56.0466742,63.7 L54.6466742,63.7 L54.6466742,62.3 L56.0466742,62.3 Z M58.8466741,62.3 L58.8466741,63.7 L57.4466742,63.7 L57.4466742,62.3 L58.8466741,62.3 Z M61.6466741,62.3 L61.6466741,63.7 L60.2466741,63.7 L60.2466741,62.3 L61.6466741,62.3 Z M28.0466747,62.3 L28.0466747,63.7 L26.6466747,63.7 L26.6466747,62.3 L28.0466747,62.3 Z M30.8466746,62.3 L30.8466746,63.7 L29.4466746,63.7 L29.4466746,62.3 L30.8466746,62.3 Z M33.6466746,62.3 L33.6466746,63.7 L32.2466746,63.7 L32.2466746,62.3 L33.6466746,62.3 Z M66.4949897,59.3 L66.4949897,60.7 L65.643749,60.7 L65.643749,59.3 L66.4949897,59.3 Z M53.0437492,59.3 L53.0437492,60.7 L51.6437492,60.7 L51.6437492,59.3 L53.0437492,59.3 Z M55.8437492,59.3 L55.8437492,60.7 L54.4437492,60.7 L54.4437492,59.3 L55.8437492,59.3 Z M58.6437491,59.3 L58.6437491,60.7 L57.2437491,60.7 L57.2437491,59.3 L58.6437491,59.3 Z M61.4437491,59.3 L61.4437491,60.7 L60.0437491,60.7 L60.0437491,59.3 L61.4437491,59.3 Z M64.243749,59.3 L64.243749,60.7 L62.843749,60.7 L62.843749,59.3 L64.243749,59.3 Z M13.8437499,59.3 L13.8437499,60.7 L12.4437499,60.7 L12.4437499,59.3 L13.8437499,59.3 Z M44.6437494,59.3 L44.6437494,60.7 L43.2437494,60.7 L43.2437494,59.3 L44.6437494,59.3 Z M41.8437494,59.3 L41.8437494,60.7 L40.4437494,60.7 L40.4437494,59.3 L41.8437494,59.3 Z M39.0437495,59.3 L39.0437495,60.7 L37.6437495,60.7 L37.6437495,59.3 L39.0437495,59.3 Z M8.24374998,59.3 L8.24374998,60.7 L6.84375,60.7 L6.84375,59.3 L8.24374998,59.3 Z M16.6437498,59.3 L16.6437498,60.7 L15.2437499,60.7 L15.2437499,59.3 L16.6437498,59.3 Z M19.4437498,59.3 L19.4437498,60.7 L18.0437498,60.7 L18.0437498,59.3 L19.4437498,59.3 Z M22.2437497,59.3 L22.2437497,60.7 L20.8437498,60.7 L20.8437498,59.3 L22.2437497,59.3 Z M25.0437497,59.3 L25.0437497,60.7 L23.6437497,60.7 L23.6437497,59.3 L25.0437497,59.3 Z M27.8437496,59.3 L27.8437496,60.7 L26.4437497,60.7 L26.4437497,59.3 L27.8437496,59.3 Z M33.4437495,59.3 L33.4437495,60.7 L32.0437496,60.7 L32.0437496,59.3 L33.4437495,59.3 Z M50.2437493,59.3 L50.2437493,60.7 L48.8437493,60.7 L48.8437493,59.3 L50.2437493,59.3 Z M30.6437496,59.3 L30.6437496,60.7 L29.2437496,60.7 L29.2437496,59.3 L30.6437496,59.3 Z M11.0437499,59.3 L11.0437499,60.7 L9.64374995,60.7 L9.64374995,59.3 L11.0437499,59.3 Z M47.4437493,59.3 L47.4437493,60.7 L46.0437493,60.7 L46.0437493,59.3 L47.4437493,59.3 Z M36.2437495,59.3 L36.2437495,60.7 L34.8437495,60.7 L34.8437495,59.3 L36.2437495,59.3 Z M30.6437496,56.3 L30.6437496,57.7 L29.2437496,57.7 L29.2437496,56.3 L30.6437496,56.3 Z M27.8437496,56.3 L27.8437496,57.7 L26.4437497,57.7 L26.4437497,56.3 L27.8437496,56.3 Z M25.0437497,56.3 L25.0437497,57.7 L23.6437497,57.7 L23.6437497,56.3 L25.0437497,56.3 Z M58.6437491,56.3 L58.6437491,57.7 L57.2437491,57.7 L57.2437491,56.3 L58.6437491,56.3 Z M66.4949897,56.3 L66.4949897,57.7 L65.643749,57.7 L65.643749,56.3 L66.4949897,56.3 Z M8.24374998,56.3 L8.24374998,57.7 L6.84375,57.7 L6.84375,56.3 L8.24374998,56.3 Z M11.0437499,56.3 L11.0437499,57.7 L9.64374995,57.7 L9.64374995,56.3 L11.0437499,56.3 Z M64.243749,56.3 L64.243749,57.7 L62.843749,57.7 L62.843749,56.3 L64.243749,56.3 Z M22.2437497,56.3 L22.2437497,57.7 L20.8437498,57.7 L20.8437498,56.3 L22.2437497,56.3 Z M16.6437498,56.3 L16.6437498,57.7 L15.2437499,57.7 L15.2437499,56.3 L16.6437498,56.3 Z M36.2437495,56.3 L36.2437495,57.7 L34.8437495,57.7 L34.8437495,56.3 L36.2437495,56.3 Z M39.0437495,56.3 L39.0437495,57.7 L37.6437495,57.7 L37.6437495,56.3 L39.0437495,56.3 Z M13.8437499,56.3 L13.8437499,57.7 L12.4437499,57.7 L12.4437499,56.3 L13.8437499,56.3 Z M41.8437494,56.3 L41.8437494,57.7 L40.4437494,57.7 L40.4437494,56.3 L41.8437494,56.3 Z M44.6437494,56.3 L44.6437494,57.7 L43.2437494,57.7 L43.2437494,56.3 L44.6437494,56.3 Z M47.4437493,56.3 L47.4437493,57.7 L46.0437493,57.7 L46.0437493,56.3 L47.4437493,56.3 Z M50.2437493,56.3 L50.2437493,57.7 L48.8437493,57.7 L48.8437493,56.3 L50.2437493,56.3 Z M53.0437492,56.3 L53.0437492,57.7 L51.6437492,57.7 L51.6437492,56.3 L53.0437492,56.3 Z M55.8437492,56.3 L55.8437492,57.7 L54.4437492,57.7 L54.4437492,56.3 L55.8437492,56.3 Z M61.4437491,56.3 L61.4437491,57.7 L60.0437491,57.7 L60.0437491,56.3 L61.4437491,56.3 Z M19.4437498,56.3 L19.4437498,57.7 L18.0437498,57.7 L18.0437498,56.3 L19.4437498,56.3 Z M33.4437495,56.3 L33.4437495,57.7 L32.0437496,57.7 L32.0437496,56.3 L33.4437495,56.3 Z M55.8437492,53.3 L55.8437492,54.7 L54.4437492,54.7 L54.4437492,53.3 L55.8437492,53.3 Z M61.4437491,53.3 L61.4437491,54.7 L60.0437491,54.7 L60.0437491,53.3 L61.4437491,53.3 Z M64.243749,53.3 L64.243749,54.7 L62.843749,54.7 L62.843749,53.3 L64.243749,53.3 Z M66.4949897,53.3 L66.4949897,54.7 L65.643749,54.7 L65.643749,53.3 L66.4949897,53.3 Z M13.8437499,53.3 L13.8437499,54.7 L12.4437499,54.7 L12.4437499,53.3 L13.8437499,53.3 Z M16.6437498,53.3 L16.6437498,54.7 L15.2437499,54.7 L15.2437499,53.3 L16.6437498,53.3 Z M11.0437499,53.3 L11.0437499,54.7 L9.64374995,54.7 L9.64374995,53.3 L11.0437499,53.3 Z M19.4437498,53.3 L19.4437498,54.7 L18.0437498,54.7 L18.0437498,53.3 L19.4437498,53.3 Z M22.2437497,53.3 L22.2437497,54.7 L20.8437498,54.7 L20.8437498,53.3 L22.2437497,53.3 Z M8.24374998,53.3 L8.24374998,54.7 L6.84375,54.7 L6.84375,53.3 L8.24374998,53.3 Z M58.6437491,53.3 L58.6437491,54.7 L57.2437491,54.7 L57.2437491,53.3 L58.6437491,53.3 Z M25.0437497,53.3 L25.0437497,54.7 L23.6437497,54.7 L23.6437497,53.3 L25.0437497,53.3 Z M30.6437496,53.3 L30.6437496,54.7 L29.2437496,54.7 L29.2437496,53.3 L30.6437496,53.3 Z M33.4437495,53.3 L33.4437495,54.7 L32.0437496,54.7 L32.0437496,53.3 L33.4437495,53.3 Z M36.2437495,53.3 L36.2437495,54.7 L34.8437495,54.7 L34.8437495,53.3 L36.2437495,53.3 Z M39.0437495,53.3 L39.0437495,54.7 L37.6437495,54.7 L37.6437495,53.3 L39.0437495,53.3 Z M41.8437494,53.3 L41.8437494,54.7 L40.4437494,54.7 L40.4437494,53.3 L41.8437494,53.3 Z M44.6437494,53.3 L44.6437494,54.7 L43.2437494,54.7 L43.2437494,53.3 L44.6437494,53.3 Z M27.8437496,53.3 L27.8437496,54.7 L26.4437497,54.7 L26.4437497,53.3 L27.8437496,53.3 Z M47.4437493,53.3 L47.4437493,54.7 L46.0437493,54.7 L46.0437493,53.3 L47.4437493,53.3 Z M50.2437493,53.3 L50.2437493,54.7 L48.8437493,54.7 L48.8437493,53.3 L50.2437493,53.3 Z M53.0437492,53.3 L53.0437492,54.7 L51.6437492,54.7 L51.6437492,53.3 L53.0437492,53.3 Z M8.24374998,50.3 L8.24374998,51.7 L6.84375,51.7 L6.84375,50.3 L8.24374998,50.3 Z M33.4437495,50.3 L33.4437495,51.7 L32.0437496,51.7 L32.0437496,50.3 L33.4437495,50.3 Z M30.6437496,50.3 L30.6437496,51.7 L29.2437496,51.7 L29.2437496,50.3 L30.6437496,50.3 Z M27.8437496,50.3 L27.8437496,51.7 L26.4437497,51.7 L26.4437497,50.3 L27.8437496,50.3 Z M25.0437497,50.3 L25.0437497,51.7 L23.6437497,51.7 L23.6437497,50.3 L25.0437497,50.3 Z M22.2437497,50.3 L22.2437497,51.7 L20.8437498,51.7 L20.8437498,50.3 L22.2437497,50.3 Z M19.4437498,50.3 L19.4437498,51.7 L18.0437498,51.7 L18.0437498,50.3 L19.4437498,50.3 Z M16.6437498,50.3 L16.6437498,51.7 L15.2437499,51.7 L15.2437499,50.3 L16.6437498,50.3 Z M64.243749,50.3 L64.243749,51.7 L62.843749,51.7 L62.843749,50.3 L64.243749,50.3 Z M11.0437499,50.3 L11.0437499,51.7 L9.64374995,51.7 L9.64374995,50.3 L11.0437499,50.3 Z M61.4437491,50.3 L61.4437491,51.7 L60.0437491,51.7 L60.0437491,50.3 L61.4437491,50.3 Z M58.6437491,50.3 L58.6437491,51.7 L57.2437491,51.7 L57.2437491,50.3 L58.6437491,50.3 Z M55.8437492,50.3 L55.8437492,51.7 L54.4437492,51.7 L54.4437492,50.3 L55.8437492,50.3 Z M53.0437492,50.3 L53.0437492,51.7 L51.6437492,51.7 L51.6437492,50.3 L53.0437492,50.3 Z M50.2437493,50.3 L50.2437493,51.7 L48.8437493,51.7 L48.8437493,50.3 L50.2437493,50.3 Z M47.4437493,50.3 L47.4437493,51.7 L46.0437493,51.7 L46.0437493,50.3 L47.4437493,50.3 Z M44.6437494,50.3 L44.6437494,51.7 L43.2437494,51.7 L43.2437494,50.3 L44.6437494,50.3 Z M13.8437499,50.3 L13.8437499,51.7 L12.4437499,51.7 L12.4437499,50.3 L13.8437499,50.3 Z M39.0437495,50.3 L39.0437495,51.7 L37.6437495,51.7 L37.6437495,50.3 L39.0437495,50.3 Z M36.2437495,50.3 L36.2437495,51.7 L34.8437495,51.7 L34.8437495,50.3 L36.2437495,50.3 Z M41.8437494,50.3 L41.8437494,51.7 L40.4437494,51.7 L40.4437494,50.3 L41.8437494,50.3 Z M66.4949897,50.3 L66.4949897,51.7 L65.643749,51.7 L65.643749,50.3 L66.4949897,50.3 Z M41.8437494,47.3 L41.8437494,48.7 L40.4437494,48.7 L40.4437494,47.3 L41.8437494,47.3 Z M66.4949897,47.3 L66.4949897,48.7 L65.643749,48.7 L65.643749,47.3 L66.4949897,47.3 Z M39.0437495,47.3 L39.0437495,48.7 L37.6437495,48.7 L37.6437495,47.3 L39.0437495,47.3 Z M19.4437498,47.3 L19.4437498,48.7 L18.0437498,48.7 L18.0437498,47.3 L19.4437498,47.3 Z M22.2437497,47.3 L22.2437497,48.7 L20.8437498,48.7 L20.8437498,47.3 L22.2437497,47.3 Z M25.0437497,47.3 L25.0437497,48.7 L23.6437497,48.7 L23.6437497,47.3 L25.0437497,47.3 Z M27.8437496,47.3 L27.8437496,48.7 L26.4437497,48.7 L26.4437497,47.3 L27.8437496,47.3 Z M30.6437496,47.3 L30.6437496,48.7 L29.2437496,48.7 L29.2437496,47.3 L30.6437496,47.3 Z M33.4437495,47.3 L33.4437495,48.7 L32.0437496,48.7 L32.0437496,47.3 L33.4437495,47.3 Z M36.2437495,47.3 L36.2437495,48.7 L34.8437495,48.7 L34.8437495,47.3 L36.2437495,47.3 Z M13.8437499,47.3 L13.8437499,48.7 L12.4437499,48.7 L12.4437499,47.3 L13.8437499,47.3 Z M11.0437499,47.3 L11.0437499,48.7 L9.64374995,48.7 L9.64374995,47.3 L11.0437499,47.3 Z M61.4437491,47.3 L61.4437491,48.7 L60.0437491,48.7 L60.0437491,47.3 L61.4437491,47.3 Z M58.6437491,47.3 L58.6437491,48.7 L57.2437491,48.7 L57.2437491,47.3 L58.6437491,47.3 Z M55.8437492,47.3 L55.8437492,48.7 L54.4437492,48.7 L54.4437492,47.3 L55.8437492,47.3 Z M44.6437494,47.3 L44.6437494,48.7 L43.2437494,48.7 L43.2437494,47.3 L44.6437494,47.3 Z M50.2437493,47.3 L50.2437493,48.7 L48.8437493,48.7 L48.8437493,47.3 L50.2437493,47.3 Z M47.4437493,47.3 L47.4437493,48.7 L46.0437493,48.7 L46.0437493,47.3 L47.4437493,47.3 Z M16.6437498,47.3 L16.6437498,48.7 L15.2437499,48.7 L15.2437499,47.3 L16.6437498,47.3 Z M8.24374998,47.3 L8.24374998,48.7 L6.84375,48.7 L6.84375,47.3 L8.24374998,47.3 Z M64.243749,47.3 L64.243749,48.7 L62.843749,48.7 L62.843749,47.3 L64.243749,47.3 Z M53.0437492,47.3 L53.0437492,48.7 L51.6437492,48.7 L51.6437492,47.3 L53.0437492,47.3 Z M13.8437499,44.3 L13.8437499,45.7 L12.4437499,45.7 L12.4437499,44.3 L13.8437499,44.3 Z M11.0437499,44.3 L11.0437499,45.7 L9.64374995,45.7 L9.64374995,44.3 L11.0437499,44.3 Z M64.243749,44.3 L64.243749,45.7 L62.843749,45.7 L62.843749,44.3 L64.243749,44.3 Z M19.4437498,44.3 L19.4437498,45.7 L18.0437498,45.7 L18.0437498,44.3 L19.4437498,44.3 Z M66.4949897,44.3 L66.4949897,45.7 L65.643749,45.7 L65.643749,44.3 L66.4949897,44.3 Z M27.8437496,44.3 L27.8437496,45.7 L26.4437497,45.7 L26.4437497,44.3 L27.8437496,44.3 Z M58.6437491,44.3 L58.6437491,45.7 L57.2437491,45.7 L57.2437491,44.3 L58.6437491,44.3 Z M8.24374998,44.3 L8.24374998,45.7 L6.84375,45.7 L6.84375,44.3 L8.24374998,44.3 Z M55.8437492,44.3 L55.8437492,45.7 L54.4437492,45.7 L54.4437492,44.3 L55.8437492,44.3 Z M53.0437492,44.3 L53.0437492,45.7 L51.6437492,45.7 L51.6437492,44.3 L53.0437492,44.3 Z M50.2437493,44.3 L50.2437493,45.7 L48.8437493,45.7 L48.8437493,44.3 L50.2437493,44.3 Z M61.4437491,44.3 L61.4437491,45.7 L60.0437491,45.7 L60.0437491,44.3 L61.4437491,44.3 Z M47.4437493,44.3 L47.4437493,45.7 L46.0437493,45.7 L46.0437493,44.3 L47.4437493,44.3 Z M41.8437494,44.3 L41.8437494,45.7 L40.4437494,45.7 L40.4437494,44.3 L41.8437494,44.3 Z M39.0437495,44.3 L39.0437495,45.7 L37.6437495,45.7 L37.6437495,44.3 L39.0437495,44.3 Z M36.2437495,44.3 L36.2437495,45.7 L34.8437495,45.7 L34.8437495,44.3 L36.2437495,44.3 Z M33.4437495,44.3 L33.4437495,45.7 L32.0437496,45.7 L32.0437496,44.3 L33.4437495,44.3 Z M30.6437496,44.3 L30.6437496,45.7 L29.2437496,45.7 L29.2437496,44.3 L30.6437496,44.3 Z M44.6437494,44.3 L44.6437494,45.7 L43.2437494,45.7 L43.2437494,44.3 L44.6437494,44.3 Z M22.2437497,44.3 L22.2437497,45.7 L20.8437498,45.7 L20.8437498,44.3 L22.2437497,44.3 Z M25.0437497,44.3 L25.0437497,45.7 L23.6437497,45.7 L23.6437497,44.3 L25.0437497,44.3 Z M16.6437498,44.3 L16.6437498,45.7 L15.2437499,45.7 L15.2437499,44.3 L16.6437498,44.3 Z M36.2437495,41.3 L36.2437495,42.7 L34.8437495,42.7 L34.8437495,41.3 L36.2437495,41.3 Z M8.24374998,41.3 L8.24374998,42.7 L6.84375,42.7 L6.84375,41.3 L8.24374998,41.3 Z M58.6437491,41.3 L58.6437491,42.7 L57.2437491,42.7 L57.2437491,41.3 L58.6437491,41.3 Z M55.8437492,41.3 L55.8437492,42.7 L54.4437492,42.7 L54.4437492,41.3 L55.8437492,41.3 Z M53.0437492,41.3 L53.0437492,42.7 L51.6437492,42.7 L51.6437492,41.3 L53.0437492,41.3 Z M50.2437493,41.3 L50.2437493,42.7 L48.8437493,42.7 L48.8437493,41.3 L50.2437493,41.3 Z M47.4437493,41.3 L47.4437493,42.7 L46.0437493,42.7 L46.0437493,41.3 L47.4437493,41.3 Z M44.6437494,41.3 L44.6437494,42.7 L43.2437494,42.7 L43.2437494,41.3 L44.6437494,41.3 Z M27.8437496,41.3 L27.8437496,42.7 L26.4437497,42.7 L26.4437497,41.3 L27.8437496,41.3 Z M30.6437496,41.3 L30.6437496,42.7 L29.2437496,42.7 L29.2437496,41.3 L30.6437496,41.3 Z M39.0437495,41.3 L39.0437495,42.7 L37.6437495,42.7 L37.6437495,41.3 L39.0437495,41.3 Z M33.4437495,41.3 L33.4437495,42.7 L32.0437496,42.7 L32.0437496,41.3 L33.4437495,41.3 Z M13.8437499,41.3 L13.8437499,42.7 L12.4437499,42.7 L12.4437499,41.3 L13.8437499,41.3 Z M11.0437499,41.3 L11.0437499,42.7 L9.64374995,42.7 L9.64374995,41.3 L11.0437499,41.3 Z M16.6437498,41.3 L16.6437498,42.7 L15.2437499,42.7 L15.2437499,41.3 L16.6437498,41.3 Z M19.4437498,41.3 L19.4437498,42.7 L18.0437498,42.7 L18.0437498,41.3 L19.4437498,41.3 Z M22.2437497,41.3 L22.2437497,42.7 L20.8437498,42.7 L20.8437498,41.3 L22.2437497,41.3 Z M25.0437497,41.3 L25.0437497,42.7 L23.6437497,42.7 L23.6437497,41.3 L25.0437497,41.3 Z M64.243749,41.3 L64.243749,42.7 L62.843749,42.7 L62.843749,41.3 L64.243749,41.3 Z M61.4437491,41.3 L61.4437491,42.7 L60.0437491,42.7 L60.0437491,41.3 L61.4437491,41.3 Z M41.8437494,41.3 L41.8437494,42.7 L40.4437494,42.7 L40.4437494,41.3 L41.8437494,41.3 Z M66.4949897,41.3 L66.4949897,42.7 L65.643749,42.7 L65.643749,41.3 L66.4949897,41.3 Z M22.2437497,38.3 L22.2437497,39.7 L20.8437498,39.7 L20.8437498,38.3 L22.2437497,38.3 Z M61.4437491,38.3 L61.4437491,39.7 L60.0437491,39.7 L60.0437491,38.3 L61.4437491,38.3 Z M64.243749,38.3 L64.243749,39.7 L62.843749,39.7 L62.843749,38.3 L64.243749,38.3 Z M11.0437499,38.3 L11.0437499,39.7 L9.64374995,39.7 L9.64374995,38.3 L11.0437499,38.3 Z M36.2437495,38.3 L36.2437495,39.7 L34.8437495,39.7 L34.8437495,38.3 L36.2437495,38.3 Z M39.0437495,38.3 L39.0437495,39.7 L37.6437495,39.7 L37.6437495,38.3 L39.0437495,38.3 Z M16.6437498,38.3 L16.6437498,39.7 L15.2437499,39.7 L15.2437499,38.3 L16.6437498,38.3 Z M13.8437499,38.3 L13.8437499,39.7 L12.4437499,39.7 L12.4437499,38.3 L13.8437499,38.3 Z M8.24374998,38.3 L8.24374998,39.7 L6.84375,39.7 L6.84375,38.3 L8.24374998,38.3 Z M19.4437498,38.3 L19.4437498,39.7 L18.0437498,39.7 L18.0437498,38.3 L19.4437498,38.3 Z M44.6437494,38.3 L44.6437494,39.7 L43.2437494,39.7 L43.2437494,38.3 L44.6437494,38.3 Z M41.8437494,38.3 L41.8437494,39.7 L40.4437494,39.7 L40.4437494,38.3 L41.8437494,38.3 Z M66.4949897,38.3 L66.4949897,39.7 L65.643749,39.7 L65.643749,38.3 L66.4949897,38.3 Z M33.4437495,38.3 L33.4437495,39.7 L32.0437496,39.7 L32.0437496,38.3 L33.4437495,38.3 Z M30.6437496,38.3 L30.6437496,39.7 L29.2437496,39.7 L29.2437496,38.3 L30.6437496,38.3 Z M27.8437496,38.3 L27.8437496,39.7 L26.4437497,39.7 L26.4437497,38.3 L27.8437496,38.3 Z M25.0437497,38.3 L25.0437497,39.7 L23.6437497,39.7 L23.6437497,38.3 L25.0437497,38.3 Z M55.8437492,38.3 L55.8437492,39.7 L54.4437492,39.7 L54.4437492,38.3 L55.8437492,38.3 Z M50.2437493,38.3 L50.2437493,39.7 L48.8437493,39.7 L48.8437493,38.3 L50.2437493,38.3 Z M53.0437492,38.3 L53.0437492,39.7 L51.6437492,39.7 L51.6437492,38.3 L53.0437492,38.3 Z M47.4437493,38.3 L47.4437493,39.7 L46.0437493,39.7 L46.0437493,38.3 L47.4437493,38.3 Z M58.6437491,38.3 L58.6437491,39.7 L57.2437491,39.7 L57.2437491,38.3 L58.6437491,38.3 Z M27.8437496,35.3 L27.8437496,36.7 L26.4437497,36.7 L26.4437497,35.3 L27.8437496,35.3 Z M22.2437497,35.3 L22.2437497,36.7 L20.8437498,36.7 L20.8437498,35.3 L22.2437497,35.3 Z M19.4437498,35.3 L19.4437498,36.7 L18.0437498,36.7 L18.0437498,35.3 L19.4437498,35.3 Z M61.4437491,35.3 L61.4437491,36.7 L60.0437491,36.7 L60.0437491,35.3 L61.4437491,35.3 Z M39.0437495,35.3 L39.0437495,36.7 L37.6437495,36.7 L37.6437495,35.3 L39.0437495,35.3 Z M8.24374998,35.3 L8.24374998,36.7 L6.84375,36.7 L6.84375,35.3 L8.24374998,35.3 Z M36.2437495,35.3 L36.2437495,36.7 L34.8437495,36.7 L34.8437495,35.3 L36.2437495,35.3 Z M11.0437499,35.3 L11.0437499,36.7 L9.64374995,36.7 L9.64374995,35.3 L11.0437499,35.3 Z M66.4949897,35.3 L66.4949897,36.7 L65.643749,36.7 L65.643749,35.3 L66.4949897,35.3 Z M16.6437498,35.3 L16.6437498,36.7 L15.2437499,36.7 L15.2437499,35.3 L16.6437498,35.3 Z M30.6437496,35.3 L30.6437496,36.7 L29.2437496,36.7 L29.2437496,35.3 L30.6437496,35.3 Z M64.243749,35.3 L64.243749,36.7 L62.843749,36.7 L62.843749,35.3 L64.243749,35.3 Z M33.4437495,35.3 L33.4437495,36.7 L32.0437496,36.7 L32.0437496,35.3 L33.4437495,35.3 Z M41.8437494,35.3 L41.8437494,36.7 L40.4437494,36.7 L40.4437494,35.3 L41.8437494,35.3 Z M44.6437494,35.3 L44.6437494,36.7 L43.2437494,36.7 L43.2437494,35.3 L44.6437494,35.3 Z M47.4437493,35.3 L47.4437493,36.7 L46.0437493,36.7 L46.0437493,35.3 L47.4437493,35.3 Z M53.0437492,35.3 L53.0437492,36.7 L51.6437492,36.7 L51.6437492,35.3 L53.0437492,35.3 Z M55.8437492,35.3 L55.8437492,36.7 L54.4437492,36.7 L54.4437492,35.3 L55.8437492,35.3 Z M13.8437499,35.3 L13.8437499,36.7 L12.4437499,36.7 L12.4437499,35.3 L13.8437499,35.3 Z M58.6437491,35.3 L58.6437491,36.7 L57.2437491,36.7 L57.2437491,35.3 L58.6437491,35.3 Z M50.2437493,35.3 L50.2437493,36.7 L48.8437493,36.7 L48.8437493,35.3 L50.2437493,35.3 Z M25.0437497,35.3 L25.0437497,36.7 L23.6437497,36.7 L23.6437497,35.3 L25.0437497,35.3 Z M36.2437495,32.3 L36.2437495,33.7 L34.8437495,33.7 L34.8437495,32.3 L36.2437495,32.3 Z M39.0437495,32.3 L39.0437495,33.7 L37.6437495,33.7 L37.6437495,32.3 L39.0437495,32.3 Z M41.8437494,32.3 L41.8437494,33.7 L40.4437494,33.7 L40.4437494,32.3 L41.8437494,32.3 Z M44.6437494,32.3 L44.6437494,33.7 L43.2437494,33.7 L43.2437494,32.3 L44.6437494,32.3 Z M47.4437493,32.3 L47.4437493,33.7 L46.0437493,33.7 L46.0437493,32.3 L47.4437493,32.3 Z M50.2437493,32.3 L50.2437493,33.7 L48.8437493,33.7 L48.8437493,32.3 L50.2437493,32.3 Z M55.8437492,32.3 L55.8437492,33.7 L54.4437492,33.7 L54.4437492,32.3 L55.8437492,32.3 Z M64.243749,32.3 L64.243749,33.7 L62.843749,33.7 L62.843749,32.3 L64.243749,32.3 Z M61.4437491,32.3 L61.4437491,33.7 L60.0437491,33.7 L60.0437491,32.3 L61.4437491,32.3 Z M33.4437495,32.3 L33.4437495,33.7 L32.0437496,33.7 L32.0437496,32.3 L33.4437495,32.3 Z M11.0437499,32.3 L11.0437499,33.7 L9.64374995,33.7 L9.64374995,32.3 L11.0437499,32.3 Z M13.8437499,32.3 L13.8437499,33.7 L12.4437499,33.7 L12.4437499,32.3 L13.8437499,32.3 Z M16.6437498,32.3 L16.6437498,33.7 L15.2437499,33.7 L15.2437499,32.3 L16.6437498,32.3 Z M19.4437498,32.3 L19.4437498,33.7 L18.0437498,33.7 L18.0437498,32.3 L19.4437498,32.3 Z M22.2437497,32.3 L22.2437497,33.7 L20.8437498,33.7 L20.8437498,32.3 L22.2437497,32.3 Z M25.0437497,32.3 L25.0437497,33.7 L23.6437497,33.7 L23.6437497,32.3 L25.0437497,32.3 Z M53.0437492,32.3 L53.0437492,33.7 L51.6437492,33.7 L51.6437492,32.3 L53.0437492,32.3 Z M27.8437496,32.3 L27.8437496,33.7 L26.4437497,33.7 L26.4437497,32.3 L27.8437496,32.3 Z M58.6437491,32.3 L58.6437491,33.7 L57.2437491,33.7 L57.2437491,32.3 L58.6437491,32.3 Z M66.4949897,32.3 L66.4949897,33.7 L65.643749,33.7 L65.643749,32.3 L66.4949897,32.3 Z M8.24374998,32.3 L8.24374998,33.7 L6.84375,33.7 L6.84375,32.3 L8.24374998,32.3 Z M30.6437496,32.3 L30.6437496,33.7 L29.2437496,33.7 L29.2437496,32.3 L30.6437496,32.3 Z M55.8437492,29.3 L55.8437492,30.7 L54.4437492,30.7 L54.4437492,29.3 L55.8437492,29.3 Z M33.4437495,29.3 L33.4437495,30.7 L32.0437496,30.7 L32.0437496,29.3 L33.4437495,29.3 Z M30.6437496,29.3 L30.6437496,30.7 L29.2437496,30.7 L29.2437496,29.3 L30.6437496,29.3 Z M36.2437495,29.3 L36.2437495,30.7 L34.8437495,30.7 L34.8437495,29.3 L36.2437495,29.3 Z M41.8437494,29.3 L41.8437494,30.7 L40.4437494,30.7 L40.4437494,29.3 L41.8437494,29.3 Z M44.6437494,29.3 L44.6437494,30.7 L43.2437494,30.7 L43.2437494,29.3 L44.6437494,29.3 Z M47.4437493,29.3 L47.4437493,30.7 L46.0437493,30.7 L46.0437493,29.3 L47.4437493,29.3 Z M50.2437493,29.3 L50.2437493,30.7 L48.8437493,30.7 L48.8437493,29.3 L50.2437493,29.3 Z M53.0437492,29.3 L53.0437492,30.7 L51.6437492,30.7 L51.6437492,29.3 L53.0437492,29.3 Z M22.2437497,29.3 L22.2437497,30.7 L20.8437498,30.7 L20.8437498,29.3 L22.2437497,29.3 Z M19.4437498,29.3 L19.4437498,30.7 L18.0437498,30.7 L18.0437498,29.3 L19.4437498,29.3 Z M27.8437496,29.3 L27.8437496,30.7 L26.4437497,30.7 L26.4437497,29.3 L27.8437496,29.3 Z M61.4437491,29.3 L61.4437491,30.7 L60.0437491,30.7 L60.0437491,29.3 L61.4437491,29.3 Z M58.6437491,29.3 L58.6437491,30.7 L57.2437491,30.7 L57.2437491,29.3 L58.6437491,29.3 Z M39.0437495,29.3 L39.0437495,30.7 L37.6437495,30.7 L37.6437495,29.3 L39.0437495,29.3 Z M64.243749,29.3 L64.243749,30.7 L62.843749,30.7 L62.843749,29.3 L64.243749,29.3 Z M8.24374998,29.3 L8.24374998,30.7 L6.84375,30.7 L6.84375,29.3 L8.24374998,29.3 Z M66.4949897,29.3 L66.4949897,30.7 L65.643749,30.7 L65.643749,29.3 L66.4949897,29.3 Z M13.8437499,29.3 L13.8437499,30.7 L12.4437499,30.7 L12.4437499,29.3 L13.8437499,29.3 Z M11.0437499,29.3 L11.0437499,30.7 L9.64374995,30.7 L9.64374995,29.3 L11.0437499,29.3 Z M16.6437498,29.3 L16.6437498,30.7 L15.2437499,30.7 L15.2437499,29.3 L16.6437498,29.3 Z M25.0437497,29.3 L25.0437497,30.7 L23.6437497,30.7 L23.6437497,29.3 L25.0437497,29.3 Z M61.4437491,26.2444357 L61.4437491,27.6444357 L60.0437491,27.6444357 L60.0437491,26.2444357 L61.4437491,26.2444357 Z M41.8437494,26.2444357 L41.8437494,27.6444357 L40.4437494,27.6444357 L40.4437494,26.2444357 L41.8437494,26.2444357 Z M44.6437494,26.2444357 L44.6437494,27.6444357 L43.2437494,27.6444357 L43.2437494,26.2444357 L44.6437494,26.2444357 Z M66.4949897,26.2444357 L66.4949897,27.6444357 L65.643749,27.6444357 L65.643749,26.2444357 L66.4949897,26.2444357 Z M36.2437495,26.2444357 L36.2437495,27.6444357 L34.8437495,27.6444357 L34.8437495,26.2444357 L36.2437495,26.2444357 Z M64.243749,26.2444357 L64.243749,27.6444357 L62.843749,27.6444357 L62.843749,26.2444357 L64.243749,26.2444357 Z M55.8437492,26.2444357 L55.8437492,27.6444357 L54.4437492,27.6444357 L54.4437492,26.2444357 L55.8437492,26.2444357 Z M53.0437492,26.2444357 L53.0437492,27.6444357 L51.6437492,27.6444357 L51.6437492,26.2444357 L53.0437492,26.2444357 Z M50.2437493,26.2444357 L50.2437493,27.6444357 L48.8437493,27.6444357 L48.8437493,26.2444357 L50.2437493,26.2444357 Z M47.4437493,26.2444357 L47.4437493,27.6444357 L46.0437493,27.6444357 L46.0437493,26.2444357 L47.4437493,26.2444357 Z M11.0437499,26.2444357 L11.0437499,27.6444357 L9.64374995,27.6444357 L9.64374995,26.2444357 L11.0437499,26.2444357 Z M13.8437499,26.2444357 L13.8437499,27.6444357 L12.4437499,27.6444357 L12.4437499,26.2444357 L13.8437499,26.2444357 Z M19.4437498,26.2444357 L19.4437498,27.6444357 L18.0437498,27.6444357 L18.0437498,26.2444357 L19.4437498,26.2444357 Z M22.2437497,26.2444357 L22.2437497,27.6444357 L20.8437498,27.6444357 L20.8437498,26.2444357 L22.2437497,26.2444357 Z M25.0437497,26.2444357 L25.0437497,27.6444357 L23.6437497,27.6444357 L23.6437497,26.2444357 L25.0437497,26.2444357 Z M27.8437496,26.2444357 L27.8437496,27.6444357 L26.4437497,27.6444357 L26.4437497,26.2444357 L27.8437496,26.2444357 Z M30.6437496,26.2444357 L30.6437496,27.6444357 L29.2437496,27.6444357 L29.2437496,26.2444357 L30.6437496,26.2444357 Z M58.6437491,26.2444357 L58.6437491,27.6444357 L57.2437491,27.6444357 L57.2437491,26.2444357 L58.6437491,26.2444357 Z M8.24374998,26.2444357 L8.24374998,27.6444357 L6.84375,27.6444357 L6.84375,26.2444357 L8.24374998,26.2444357 Z M16.6437498,26.2444357 L16.6437498,27.6444357 L15.2437499,27.6444357 L15.2437499,26.2444357 L16.6437498,26.2444357 Z M33.4437495,26.2444357 L33.4437495,27.6444357 L32.0437496,27.6444357 L32.0437496,26.2444357 L33.4437495,26.2444357 Z M39.0437495,26.2444357 L39.0437495,27.6444357 L37.6437495,27.6444357 L37.6437495,26.2444357 L39.0437495,26.2444357 Z M11.246675,22.8 L11.246675,24.2 L9.84667498,24.2 L9.84667498,22.8 L11.246675,22.8 Z M14.0466749,22.8 L14.0466749,24.2 L12.6466749,24.2 L12.6466749,22.8 L14.0466749,22.8 Z M16.8466749,22.8 L16.8466749,24.2 L15.4466749,24.2 L15.4466749,22.8 L16.8466749,22.8 Z M19.6466748,22.8 L19.6466748,24.2 L18.2466748,24.2 L18.2466748,22.8 L19.6466748,22.8 Z M22.4466748,22.8 L22.4466748,24.2 L21.0466748,24.2 L21.0466748,22.8 L22.4466748,22.8 Z M25.2466747,22.8 L25.2466747,24.2 L23.8466747,24.2 L23.8466747,22.8 L25.2466747,22.8 Z M28.0466747,22.8 L28.0466747,24.2 L26.6466747,24.2 L26.6466747,22.8 L28.0466747,22.8 Z M30.8466746,22.8 L30.8466746,24.2 L29.4466746,24.2 L29.4466746,22.8 L30.8466746,22.8 Z M33.6466746,22.8 L33.6466746,24.2 L32.2466746,24.2 L32.2466746,22.8 L33.6466746,22.8 Z M36.4466745,22.8 L36.4466745,24.2 L35.0466746,24.2 L35.0466746,22.8 L36.4466745,22.8 Z M39.2466745,22.8 L39.2466745,24.2 L37.8466745,24.2 L37.8466745,22.8 L39.2466745,22.8 Z M42.0466744,22.8 L42.0466744,24.2 L40.6466745,24.2 L40.6466745,22.8 L42.0466744,22.8 Z M44.8466744,22.8 L44.8466744,24.2 L43.4466744,24.2 L43.4466744,22.8 L44.8466744,22.8 Z M47.6466743,22.8 L47.6466743,24.2 L46.2466744,24.2 L46.2466744,22.8 L47.6466743,22.8 Z M50.4466743,22.8 L50.4466743,24.2 L49.0466743,24.2 L49.0466743,22.8 L50.4466743,22.8 Z M53.2466742,22.8 L53.2466742,24.2 L51.8466743,24.2 L51.8466743,22.8 L53.2466742,22.8 Z M56.0466742,22.8 L56.0466742,24.2 L54.6466742,24.2 L54.6466742,22.8 L56.0466742,22.8 Z M58.8466741,22.8 L58.8466741,24.2 L57.4466742,24.2 L57.4466742,22.8 L58.8466741,22.8 Z M62.6466741,22.8 L62.6466741,24.2 L61.2466741,24.2 L61.2466741,22.8 L62.6466741,22.8 Z M18.3586244,19.8 L18.3586244,21.2 L16.9586244,21.2 L16.9586244,19.8 L18.3586244,19.8 Z M21.1586244,19.8 L21.1586244,21.2 L19.7586244,21.2 L19.7586244,19.8 L21.1586244,19.8 Z M23.9586243,19.8 L23.9586243,21.2 L22.5586243,21.2 L22.5586243,19.8 L23.9586243,19.8 Z M26.7586243,19.8 L26.7586243,21.2 L25.3586243,21.2 L25.3586243,19.8 L26.7586243,19.8 Z M29.5586242,19.8 L29.5586242,21.2 L28.1586243,21.2 L28.1586243,19.8 L29.5586242,19.8 Z M32.3586242,19.8 L32.3586242,21.2 L30.9586242,21.2 L30.9586242,19.8 L32.3586242,19.8 Z M35.1586241,19.8 L35.1586241,21.2 L33.7586242,21.2 L33.7586242,19.8 L35.1586241,19.8 Z M37.9586241,19.8 L37.9586241,21.2 L36.5586241,21.2 L36.5586241,19.8 L37.9586241,19.8 Z M40.758624,19.8 L40.758624,21.2 L39.3586241,21.2 L39.3586241,19.8 L40.758624,19.8 Z M43.558624,19.8 L43.558624,21.2 L42.158624,21.2 L42.158624,19.8 L43.558624,19.8 Z M46.3586239,19.8 L46.3586239,21.2 L44.958624,21.2 L44.958624,19.8 L46.3586239,19.8 Z M49.1586239,19.8 L49.1586239,21.2 L47.7586239,21.2 L47.7586239,19.8 L49.1586239,19.8 Z M51.9586238,19.8 L51.9586238,21.2 L50.5586239,21.2 L50.5586239,19.8 L51.9586238,19.8 Z M54.7586238,19.8 L54.7586238,21.2 L53.3586238,21.2 L53.3586238,19.8 L54.7586238,19.8 Z M57.5586238,19.8 L57.5586238,21.2 L56.1586238,21.2 L56.1586238,19.8 L57.5586238,19.8 Z M23.0818242,16.8 L23.0818242,18.2 L21.6818242,18.2 L21.6818242,16.8 L23.0818242,16.8 Z M25.8818241,16.8 L25.8818241,18.2 L24.4818242,18.2 L24.4818242,16.8 L25.8818241,16.8 Z M28.6818241,16.8 L28.6818241,18.2 L27.2818241,18.2 L27.2818241,16.8 L28.6818241,16.8 Z M31.4818241,16.8 L31.4818241,18.2 L30.0818241,18.2 L30.0818241,16.8 L31.4818241,16.8 Z M34.281824,16.8 L34.281824,18.2 L32.881824,18.2 L32.881824,16.8 L34.281824,16.8 Z M37.081824,16.8 L37.081824,18.2 L35.681824,18.2 L35.681824,16.8 L37.081824,16.8 Z M39.8818239,16.8 L39.8818239,18.2 L38.4818239,18.2 L38.4818239,16.8 L39.8818239,16.8 Z M42.6818239,16.8 L42.6818239,18.2 L41.2818239,18.2 L41.2818239,16.8 L42.6818239,16.8 Z M45.4818238,16.8 L45.4818238,18.2 L44.0818238,18.2 L44.0818238,16.8 L45.4818238,16.8 Z M48.2818238,16.8 L48.2818238,18.2 L46.8818238,18.2 L46.8818238,16.8 L48.2818238,16.8 Z M51.0818237,16.8 L51.0818237,18.2 L49.6818237,18.2 L49.6818237,16.8 L51.0818237,16.8 Z M27.7325081,13.8 L27.7325081,15.2 L26.3325081,15.2 L26.3325081,13.8 L27.7325081,13.8 Z M30.532508,13.8 L30.532508,15.2 L29.1325081,15.2 L29.1325081,13.8 L30.532508,13.8 Z M33.332508,13.8 L33.332508,15.2 L31.932508,15.2 L31.932508,13.8 L33.332508,13.8 Z M36.1325079,13.8 L36.1325079,15.2 L34.732508,15.2 L34.732508,13.8 L36.1325079,13.8 Z M38.9325079,13.8 L38.9325079,15.2 L37.5325079,15.2 L37.5325079,13.8 L38.9325079,13.8 Z M41.7325078,13.8 L41.7325078,15.2 L40.3325079,15.2 L40.3325079,13.8 L41.7325078,13.8 Z M44.5325078,13.8 L44.5325078,15.2 L43.1325078,15.2 L43.1325078,13.8 L44.5325078,13.8 Z M47.3325077,13.8 L47.3325077,15.2 L45.9325078,15.2 L45.9325078,13.8 L47.3325077,13.8 Z M33.6750094,10.8 L33.6750094,12.2 L32.2750094,12.2 L32.2750094,10.8 L33.6750094,10.8 Z M36.4750093,10.8 L36.4750093,12.2 L35.0750093,12.2 L35.0750093,10.8 L36.4750093,10.8 Z M39.2750093,10.8 L39.2750093,12.2 L37.8750093,12.2 L37.8750093,10.8 L39.2750093,10.8 Z M42.0750092,10.8 L42.0750092,12.2 L40.6750092,12.2 L40.6750092,10.8 L42.0750092,10.8 Z" id="形状结合" fill="url(#radialGradient-7)" fill-rule="nonzero" opacity="0.658505394"></path>
            <path d="M6.84375,60.5266371 L6.84375,25.7463757 L36.6693698,8.16494845 L66.4949897,25.7463757 L66.4949897,60.5266371 L36.6693698,78.5364443 L6.84375,60.5266371 Z" id="形状结合备份-9" stroke="url(#linearGradient-8)" stroke-width="2"></path>
            <polyline id="路径-7" stroke="#FFD700" stroke-width="2" points="6.84375 30.7825676 6.84375 25.7244553 10.9978581 23.3154639"></polyline>
            <polyline id="路径-7备份" stroke="#FFD700" stroke-width="2" transform="translate(64.492054, 27.049016) scale(-1, 1) translate(-64.492054, -27.049016) " points="62.415 30.7825676 62.415 25.7244553 66.5691081 23.3154639"></polyline>
        </g>
    </g>
</svg>