<?xml version="1.0" encoding="UTF-8"?>
<svg width="22px" height="22px" viewBox="0 0 22 22" version="1.1" xmlns="http://www.w3.org/2000/svg" xmlns:xlink="http://www.w3.org/1999/xlink">
    <!-- Generator: Sketch 60 (88103) - https://sketch.com -->
    <title>icon_right arrow</title>
    <desc>Created with Sketch.</desc>
    <g id="组件" stroke="none" stroke-width="1" fill="none" fill-rule="evenodd">
        <g id="icon/22x22/向右箭头">
            <g id="编组-15">
                <rect id="矩形" fill="#595959" opacity="0" x="0" y="0" width="22" height="22"></rect>
                <path d="M5.17936818,6.11163182 L11.663962,11.8754136 C11.8155164,12.0101286 12.0438986,12.0101286 12.195453,11.8754136 L18.6793682,6.11163182 L22.6710468,6.11163182 C22.6992213,6.11163182 22.7260886,6.12351711 22.7450408,6.14436454 C22.7729038,6.17501387 22.7781755,6.21825141 22.7618297,6.25362755 L22.7383141,6.28562583 L12.1987766,15.8670235 C12.0680036,15.9859081 11.8781372,16.0028916 11.7304803,15.9179741 L11.6606384,15.8670235 L1.1211009,6.28562583 C1.10025346,6.26667361 1.08836818,6.23980632 1.08836818,6.21163182 C1.08836818,6.17021047 1.11355216,6.13467115 1.14944366,6.11949032 L1.18836818,6.11163182 L5.17936818,6.11163182 Z M15.6882861,6.11163182 C15.7148078,6.11163182 15.7402432,6.12216751 15.7589968,6.14092115 C15.7882861,6.17021047 15.7956085,6.21314833 15.7809638,6.24926192 L15.7589968,6.2823425 L12.2125502,9.82878911 C12.0758667,9.96547261 11.8648745,9.98255805 11.7096138,9.88004543 L11.6468648,9.82878911 L8.10041817,6.2823425 C8.08166453,6.26358886 8.07112884,6.23815347 8.07112884,6.21163182 C8.07112884,6.17021047 8.09631283,6.13467115 8.13220433,6.11949032 L8.17112884,6.11163182 L15.6882861,6.11163182 Z" id="icon_right-arrow" fill="#FFEDBB" transform="translate(11.929708, 11.041340) scale(-1, 1) rotate(90.000000) translate(-11.929708, -11.041340) "></path>
            </g>
        </g>
    </g>
</svg>